<svg width="16" height="16" viewBox="0 0 16 16" fill="none" xmlns="http://www.w3.org/2000/svg">
<path d="M5.87937 10.8269L1.85337 14.8539C1.80688 14.9004 1.75169 14.9373 1.69095 14.9624C1.63021 14.9876 1.56511 15.0005 1.49937 15.0005C1.43363 15.0005 1.36852 14.9876 1.30779 14.9624C1.24705 14.9373 1.19186 14.9004 1.14537 14.8539C1.09888 14.8074 1.062 14.7522 1.03685 14.6915C1.01169 14.6307 0.998737 14.5656 0.998737 14.4999C0.998737 14.4342 1.01169 14.3691 1.03685 14.3083C1.062 14.2476 1.09888 14.1924 1.14537 14.1459L14.1454 1.1459C14.1919 1.09941 14.247 1.06253 14.3078 1.03738C14.3685 1.01222 14.4336 0.999268 14.4994 0.999268C14.5651 0.999268 14.6302 1.01222 14.691 1.03738C14.7517 1.06253 14.8069 1.09941 14.8534 1.1459C14.8999 1.19239 14.9367 1.24758 14.9619 1.30832C14.9871 1.36906 15 1.43416 15 1.4999C15 1.56564 14.9871 1.63074 14.9619 1.69148C14.9367 1.75222 14.8999 1.80741 14.8534 1.8539L11.6234 5.0839C12.063 5.39532 12.4586 5.76466 12.7994 6.1819C13.282 6.77406 13.6597 7.44439 13.9164 8.1639C13.9374 8.2249 13.9634 8.3089 13.9634 8.3089L13.9814 8.3709C13.9814 8.3709 14.0574 8.8679 13.6264 8.9819C13.4983 9.01576 13.362 8.99739 13.2474 8.93082C13.1329 8.86426 13.0494 8.75495 13.0154 8.6269L13.0144 8.6239L13.0064 8.5989L12.9714 8.4899C12.7534 7.88242 12.4339 7.31638 12.0264 6.8159C11.706 6.42216 11.3269 6.08015 10.9024 5.8019L9.32437 7.3799C9.64281 7.57949 9.91215 7.8483 10.1124 8.16634C10.3126 8.48438 10.4385 8.84347 10.4808 9.2169C10.5231 9.59032 10.4806 9.96848 10.3566 10.3232C10.2326 10.678 10.0302 11.0002 9.76445 11.266C9.4987 11.5317 9.17647 11.7341 8.82171 11.8582C8.46695 11.9822 8.08879 12.0246 7.71537 11.9823C7.34194 11.94 6.98285 11.8141 6.66481 11.6139C6.34677 11.4137 6.07795 11.1443 5.87837 10.8259L5.87937 10.8269ZM9.67937 4.1989L8.82537 5.0529C8.56537 5.0189 8.29037 4.9999 7.99937 4.9999C5.95537 4.9999 4.71337 5.9119 3.97137 6.8169C3.56379 7.31732 3.24424 7.88338 3.02637 8.4909C3.00937 8.5389 2.99837 8.5759 2.99137 8.5999L2.98337 8.6249V8.6279L2.98237 8.6289C2.94537 8.7537 2.86116 8.85915 2.74764 8.92284C2.63412 8.98653 2.50023 9.00343 2.37444 8.96997C2.24865 8.9365 2.14087 8.8553 2.074 8.74362C2.00714 8.63194 1.98646 8.49858 2.01637 8.3719V8.3689L2.01737 8.3649L2.02137 8.3519C2.0387 8.28874 2.05871 8.22635 2.08137 8.1649C2.33799 7.44539 2.71577 6.77506 3.19837 6.1829C4.09437 5.0879 5.60337 3.9999 7.99737 3.9999C8.61537 3.9999 9.17437 4.0719 9.67837 4.1989H9.67937Z" fill="black"/>
</svg>
